<?xml version="1.0" encoding="utf-8"?>
<!-- Generator: Adobe Illustrator 18.1.1, SVG Export Plug-In . SVG Version: 6.00 Build 0)  -->
<svg version="1.1" id="Layer_1" xmlns="http://www.w3.org/2000/svg" xmlns:xlink="http://www.w3.org/1999/xlink" x="0px" y="0px"
	 viewBox="0 0 555.3 466.2" enable-background="new 0 0 555.3 466.2" xml:space="preserve">
<g>
	<g id="XMLID_1_">
		<g>
			<path fill="#FFFFFF" d="M325,350.4c-5.1-17.5-25-30.5-48.7-30.5c-27.6,0-50,17.6-50,39.4c0,21.8,22.4,39.4,50,39.4
				c27.6,0,50-17.6,50-39.4C326.3,356.2,325.8,353.2,325,350.4z M325,180.5h226v252.7c0,16-13.1,29.1-29.1,29.1H34
				c-16,0-29.1-13.1-29.1-29.1V180.5H325z"/>
			<path fill="#F7931E" d="M551,164.7v15.8H325v-4.3h196.3c9.5,0,18-4.5,23.4-11.5H551z"/>
			<path fill="#F7931E" d="M325,164.7H11.2c-3.9-5-6.3-11.4-6.3-18.2V75c0-16.3,13.4-29.7,29.7-29.7h486.7
				c16.3,0,29.7,13.4,29.7,29.7v71.5c0,6.8-2.3,13.1-6.3,18.2H325z"/>
			<path fill="#F7931E" d="M325,164.7h219.7c-5.4,7-13.9,11.5-23.4,11.5H325v-8.3V164.7z"/>
			<path fill="#F7931E" d="M325,350.4c0.8,2.8,1.3,5.8,1.3,8.9c0,21.8-22.4,39.4-50,39.4c-27.6,0-50-17.6-50-39.4
				c0-21.8,22.4-39.4,50-39.4C300,319.8,319.9,332.9,325,350.4z"/>
			<path fill="#F7931E" d="M325,176.2v4.3H4.9v-15.8h6.3c5.4,7,13.9,11.5,23.4,11.5H325z"/>
			<path fill="#F7931E" d="M325,167.9v8.3H34.6c-9.5,0-18-4.5-23.4-11.5H325V167.9z"/>
		</g>
		<g>
			<line fill="none" stroke="#F7931E" stroke-width="10" stroke-miterlimit="10" x1="551" y1="146.5" x2="551" y2="164.7"/>
			<path fill="none" stroke="#F7931E" stroke-width="10" stroke-miterlimit="10" d="M521.3,45.3h0.6c16,0,29.1,13.1,29.1,29.1V75"/>
			<path fill="none" stroke="#F7931E" stroke-width="10" stroke-miterlimit="10" d="M4.9,75v-0.6c0-16,13.1-29.1,29.1-29.1h0.6"/>
			<line fill="none" stroke="#F7931E" stroke-width="10" stroke-miterlimit="10" x1="4.9" y1="164.7" x2="4.9" y2="146.5"/>
			<path fill="none" stroke="#F7931E" stroke-width="10" stroke-miterlimit="10" d="M551,180.5v252.7c0,16-13.1,29.1-29.1,29.1H34
				c-16,0-29.1-13.1-29.1-29.1V180.5"/>
			<path fill="none" stroke="#F7931E" stroke-width="10" stroke-miterlimit="10" d="M11.2,164.7c-3.9-5-6.3-11.4-6.3-18.2V75
				c0-16.3,13.4-29.7,29.7-29.7h486.7c16.3,0,29.7,13.4,29.7,29.7v71.5c0,6.8-2.3,13.1-6.3,18.2"/>
			<polygon fill="none" stroke="#F7931E" stroke-width="10" stroke-miterlimit="10" points="551,180.5 325,180.5 4.9,180.5 
				4.9,164.7 11.2,164.7 325,164.7 544.7,164.7 551,164.7 			"/>
			<path fill="none" stroke="#F7931E" stroke-width="10" stroke-miterlimit="10" d="M326.3,359.2c0,21.8-22.4,39.4-50,39.4
				c-27.6,0-50-17.6-50-39.4c0-21.8,22.4-39.4,50-39.4c23.8,0,43.6,13,48.7,30.5C325.8,353.2,326.3,356.2,326.3,359.2z"/>
			<polyline fill="none" stroke="#F7931E" stroke-width="12" stroke-miterlimit="10" points="325,360.9 325,350.4 325,184.9 			"/>
			<polyline fill="none" stroke="#FFFFFF" stroke-width="12" stroke-miterlimit="10" points="325,184.9 325,180.5 325,176.2 
				325,167.9 325,164.7 325,111.9 			"/>
		</g>
	</g>
</g>
<path fill="#FFFFFF" stroke="#FFFFFF" stroke-width="12" stroke-miterlimit="10" d="M114.8,103.6H93.2c-6.6,0-12-5.4-12-12V19.1
	c0-6.6,5.4-12,12-12h21.6c6.6,0,12,5.4,12,12v72.5C126.8,98.2,121.4,103.6,114.8,103.6z"/>
<path fill="#FFFFFF" stroke="#FFFFFF" stroke-width="12" stroke-miterlimit="10" d="M462.8,103.6h-21.6c-6.6,0-12-5.4-12-12V19.1
	c0-6.6,5.4-12,12-12h21.6c6.6,0,12,5.4,12,12v72.5C474.8,98.2,469.4,103.6,462.8,103.6z"/>
</svg>
